Ben Gazzara delivers a gutsy, four-barreled performance as skid-row poet and storyteller Charles Bukowski (rechristened Charles Serking onscreen) in Tales of Ordinary Madness, blackly comic Italian director Marco Ferreri's adaptation of Bukowski's roman à clef Erections, Ejaculations, Exhibitions and General Tales of Ordinary Madness. Half soused, with a 2 a.m. shadow and street urchin rags, Serking waltzes through the scummiest neighborhoods of the City of Angels, soaking up booze, poetry, and copulation, and lounging in flophouses and on grimy public buses. His bedmates are a midget, a string of seedy whores, and various earthy L.A. denizens, played by Susan Tyrell, Ornella Muti, and others; he eventually falls for a prostitute who can express her affection only via self-mutilation. Ferreri lets Bukowski's ribald humor flow throughout and exposes the dark erotic currents at the heart of the author's narratives. Laced with perverse, shocking imagery, this unbridled celebration of life's dark underbelly has been praised by critics such as The New Yorker's Pauline Kael and Playboy's Bruce Williamson for its "genuine audacity and risktaking." 

   General
      Complete name : Storie di ordinaria follia.avi
      Format : AVI
      Format/Info : Audio Video Interleave
      File size : 1.31 GiB
      Duration : 1h 41mn
      Overall bit rate : 1 849 Kbps
   Video #0
      ID : 0
      Format : MPEG-4 Visual
      Format profile : AdvancedSimple@L5
      Format settings, BVOP : Yes
      Format settings, QPel : No
      Format settings, GMC : No warppoints
      Format settings, Matrix : Default (H.263)
      Codec ID : XVID
      Codec ID/Hint : XviD
      Duration : 1h 41mn
      Bit rate : 1 648 Kbps
      Width : 672 pixels
      Height : 384 pixels
      Display aspect ratio : 16:9
      Frame rate : 23.976 fps
      Resolution : 24 bits
      Colorimetry : 4:2:0
      Scan type : Progressive
      Bits/(Pixel*Frame) : 0.266
      Stream size : 1.17 GiB (89%)
      Writing library : XviD 1.2.0SMP (UTC 2006-01-08)
   Audio #1
      ID : 1
      Format : AC-3
      Format/Info : Audio Coding 3
      Codec ID : 2000
      Duration : 1h 41mn
      Bit rate mode : Constant
      Bit rate : 192 Kbps
      Channel(s) : 2 channels
      Channel positions : L R
      Sampling rate : 48.0 KHz
      Resolution : 16 bits
      Stream size : 140 MiB (10%)
      Alignment : Aligned on interleaves
      Interleave, duration : 42 ms (1.00 video frame)
 
http://www.imdb.com/title/tt0086410/

English audio; English, Spanish and Portuguese subtitles

Ripped and posted originally at KG by stiller, whom we thank

Marco Ferreri - Storie di ordinaria follia (1981)